<svg xmlns="http://www.w3.org/2000/svg" viewBox="0 0 80 80" width="80" height="80" shape-rendering="crispEdges"><rect x="13" y="0" width="54" height="1" fill="#16243f"/><rect x="11" y="1" width="58" height="1" fill="#16243f"/><rect x="9" y="2" width="62" height="1" fill="#16243f"/><rect x="7" y="3" width="66" height="1" fill="#16243f"/><rect x="6" y="4" width="68" height="1" fill="#16243f"/><rect x="5" y="5" width="70" height="1" fill="#16243f"/><rect x="4" y="6" width="72" height="1" fill="#16243f"/><rect x="3" y="7" width="74" height="1" fill="#16243f"/><rect x="3" y="8" width="74" height="1" fill="#16243f"/><rect x="2" y="9" width="76" height="1" fill="#16243f"/><rect x="2" y="10" width="76" height="1" fill="#16243f"/><rect x="1" y="11" width="78" height="1" fill="#16243f"/><rect x="1" y="12" width="78" height="1" fill="#16243f"/><rect x="0" y="13" width="80" height="1" fill="#16243f"/><rect x="0" y="14" width="80" height="1" fill="#16243f"/><rect x="0" y="15" width="20" height="1" fill="#16243f"/><rect x="20" y="15" width="25" height="1" fill="#0b1326"/><rect x="45" y="15" width="35" height="1" fill="#16243f"/><rect x="0" y="16" width="20" height="1" fill="#16243f"/><rect x="20" y="16" width="29" height="1" fill="#0b1326"/><rect x="49" y="16" width="31" height="1" fill="#16243f"/><rect x="0" y="17" width="20" height="1" fill="#16243f"/><rect x="20" y="17" width="2" height="1" fill="#0b1326"/><rect x="22" y="17" width="21" height="1" fill="#f8f1df"/><rect x="43" y="17" width="8" height="1" fill="#0b1326"/><rect x="51" y="17" width="29" height="1" fill="#16243f"/><rect x="0" y="18" width="20" height="1" fill="#16243f"/><rect x="20" y="18" width="2" height="1" fill="#0b1326"/><rect x="22" y="18" width="1" height="1" fill="#f8f1df"/><rect x="23" y="18" width="19" height="1" fill="#ffe0d6"/><rect x="42" y="18" width="5" height="1" fill="#f8f1df"/><rect x="47" y="18" width="5" height="1" fill="#0b1326"/><rect x="52" y="18" width="28" height="1" fill="#16243f"/><rect x="0" y="19" width="20" height="1" fill="#16243f"/><rect x="20" y="19" width="2" height="1" fill="#0b1326"/><rect x="22" y="19" width="1" height="1" fill="#f8f1df"/><rect x="23" y="19" width="19" height="1" fill="#f9836f"/><rect x="42" y="19" width="4" height="1" fill="#ffe0d6"/><rect x="46" y="19" width="3" height="1" fill="#f8f1df"/><rect x="49" y="19" width="4" height="1" fill="#0b1326"/><rect x="53" y="19" width="27" height="1" fill="#16243f"/><rect x="0" y="20" width="20" height="1" fill="#16243f"/><rect x="20" y="20" width="2" height="1" fill="#0b1326"/><rect x="22" y="20" width="1" height="1" fill="#f8f1df"/><rect x="23" y="20" width="23" height="1" fill="#f9836f"/><rect x="46" y="20" width="2" height="1" fill="#ffe0d6"/><rect x="48" y="20" width="2" height="1" fill="#f8f1df"/><rect x="50" y="20" width="4" height="1" fill="#0b1326"/><rect x="54" y="20" width="26" height="1" fill="#16243f"/><rect x="0" y="21" width="20" height="1" fill="#16243f"/><rect x="20" y="21" width="2" height="1" fill="#0b1326"/><rect x="22" y="21" width="1" height="1" fill="#f8f1df"/><rect x="23" y="21" width="25" height="1" fill="#f9836f"/><rect x="48" y="21" width="1" height="1" fill="#ffe0d6"/><rect x="49" y="21" width="2" height="1" fill="#f8f1df"/><rect x="51" y="21" width="4" height="1" fill="#0b1326"/><rect x="55" y="21" width="25" height="1" fill="#16243f"/><rect x="0" y="22" width="20" height="1" fill="#16243f"/><rect x="20" y="22" width="2" height="1" fill="#0b1326"/><rect x="22" y="22" width="1" height="1" fill="#f8f1df"/><rect x="23" y="22" width="2" height="1" fill="#f9836f"/><rect x="25" y="22" width="1" height="1" fill="#f15a48"/><rect x="26" y="22" width="3" height="1" fill="#f9836f"/><rect x="29" y="22" width="1" height="1" fill="#f15a48"/><rect x="30" y="22" width="3" height="1" fill="#f9836f"/><rect x="33" y="22" width="1" height="1" fill="#f15a48"/><rect x="34" y="22" width="3" height="1" fill="#f9836f"/><rect x="37" y="22" width="1" height="1" fill="#f15a48"/><rect x="38" y="22" width="3" height="1" fill="#f9836f"/><rect x="41" y="22" width="1" height="1" fill="#f15a48"/><rect x="42" y="22" width="3" height="1" fill="#f9836f"/><rect x="45" y="22" width="1" height="1" fill="#f15a48"/><rect x="46" y="22" width="3" height="1" fill="#f9836f"/><rect x="49" y="22" width="1" height="1" fill="#ffe0d6"/><rect x="50" y="22" width="2" height="1" fill="#f8f1df"/><rect x="52" y="22" width="3" height="1" fill="#0b1326"/><rect x="55" y="22" width="25" height="1" fill="#16243f"/><rect x="0" y="23" width="20" height="1" fill="#16243f"/><rect x="20" y="23" width="2" height="1" fill="#0b1326"/><rect x="22" y="23" width="1" height="1" fill="#f8f1df"/><rect x="23" y="23" width="27" height="1" fill="#f9836f"/><rect x="50" y="23" width="1" height="1" fill="#ffe0d6"/><rect x="51" y="23" width="2" height="1" fill="#f8f1df"/><rect x="53" y="23" width="3" height="1" fill="#0b1326"/><rect x="56" y="23" width="24" height="1" fill="#16243f"/><rect x="0" y="24" width="20" height="1" fill="#16243f"/><rect x="20" y="24" width="2" height="1" fill="#0b1326"/><rect x="22" y="24" width="1" height="1" fill="#f8f1df"/><rect x="23" y="24" width="1" height="1" fill="#f15a48"/><rect x="24" y="24" width="1" height="1" fill="#f9836f"/><rect x="25" y="24" width="1" height="1" fill="#f15a48"/><rect x="26" y="24" width="1" height="1" fill="#f9836f"/><rect x="27" y="24" width="1" height="1" fill="#f15a48"/><rect x="28" y="24" width="1" height="1" fill="#f9836f"/><rect x="29" y="24" width="1" height="1" fill="#f15a48"/><rect x="30" y="24" width="1" height="1" fill="#f9836f"/><rect x="31" y="24" width="1" height="1" fill="#f15a48"/><rect x="32" y="24" width="1" height="1" fill="#f9836f"/><rect x="33" y="24" width="1" height="1" fill="#f15a48"/><rect x="34" y="24" width="1" height="1" fill="#f9836f"/><rect x="35" y="24" width="1" height="1" fill="#f15a48"/><rect x="36" y="24" width="1" height="1" fill="#f9836f"/><rect x="37" y="24" width="1" height="1" fill="#f15a48"/><rect x="38" y="24" width="1" height="1" fill="#f9836f"/><rect x="39" y="24" width="1" height="1" fill="#f15a48"/><rect x="40" y="24" width="1" height="1" fill="#f9836f"/><rect x="41" y="24" width="1" height="1" fill="#f15a48"/><rect x="42" y="24" width="1" height="1" fill="#f9836f"/><rect x="43" y="24" width="1" height="1" fill="#f15a48"/><rect x="44" y="24" width="1" height="1" fill="#f9836f"/><rect x="45" y="24" width="1" height="1" fill="#f15a48"/><rect x="46" y="24" width="1" height="1" fill="#f9836f"/><rect x="47" y="24" width="1" height="1" fill="#f15a48"/><rect x="48" y="24" width="1" height="1" fill="#f9836f"/><rect x="49" y="24" width="1" height="1" fill="#f15a48"/><rect x="50" y="24" width="1" height="1" fill="#f9836f"/><rect x="51" y="24" width="1" height="1" fill="#ffe0d6"/><rect x="52" y="24" width="1" height="1" fill="#f8f1df"/><rect x="53" y="24" width="3" height="1" fill="#0b1326"/><rect x="56" y="24" width="1" height="1" fill="#080c1a" fill-opacity="0.45"/><rect x="57" y="24" width="23" height="1" fill="#16243f"/><rect x="0" y="25" width="20" height="1" fill="#16243f"/><rect x="20" y="25" width="2" height="1" fill="#0b1326"/><rect x="22" y="25" width="1" height="1" fill="#f8f1df"/><rect x="23" y="25" width="1" height="1" fill="#f9836f"/><rect x="24" y="25" width="1" height="1" fill="#f15a48"/><rect x="25" y="25" width="1" height="1" fill="#f9836f"/><rect x="26" y="25" width="1" height="1" fill="#f15a48"/><rect x="27" y="25" width="1" height="1" fill="#f9836f"/><rect x="28" y="25" width="1" height="1" fill="#f15a48"/><rect x="29" y="25" width="1" height="1" fill="#f9836f"/><rect x="30" y="25" width="1" height="1" fill="#f15a48"/><rect x="31" y="25" width="1" height="1" fill="#f9836f"/><rect x="32" y="25" width="1" height="1" fill="#f15a48"/><rect x="33" y="25" width="1" height="1" fill="#f9836f"/><rect x="34" y="25" width="1" height="1" fill="#f15a48"/><rect x="35" y="25" width="1" height="1" fill="#f9836f"/><rect x="36" y="25" width="1" height="1" fill="#f15a48"/><rect x="37" y="25" width="1" height="1" fill="#f9836f"/><rect x="38" y="25" width="1" height="1" fill="#f15a48"/><rect x="39" y="25" width="1" height="1" fill="#f9836f"/><rect x="40" y="25" width="1" height="1" fill="#f15a48"/><rect x="41" y="25" width="1" height="1" fill="#f9836f"/><rect x="42" y="25" width="1" height="1" fill="#f15a48"/><rect x="43" y="25" width="1" height="1" fill="#f9836f"/><rect x="44" y="25" width="1" height="1" fill="#f15a48"/><rect x="45" y="25" width="1" height="1" fill="#f9836f"/><rect x="46" y="25" width="1" height="1" fill="#f15a48"/><rect x="47" y="25" width="1" height="1" fill="#f9836f"/><rect x="48" y="25" width="1" height="1" fill="#f15a48"/><rect x="49" y="25" width="1" height="1" fill="#f9836f"/><rect x="50" y="25" width="1" height="1" fill="#f15a48"/><rect x="51" y="25" width="1" height="1" fill="#f9836f"/><rect x="52" y="25" width="2" height="1" fill="#f8f1df"/><rect x="54" y="25" width="2" height="1" fill="#0b1326"/><rect x="56" y="25" width="1" height="1" fill="#080c1a" fill-opacity="0.45"/><rect x="57" y="25" width="23" height="1" fill="#16243f"/><rect x="0" y="26" width="20" height="1" fill="#16243f"/><rect x="20" y="26" width="2" height="1" fill="#0b1326"/><rect x="22" y="26" width="1" height="1" fill="#f8f1df"/><rect x="23" y="26" width="1" height="1" fill="#f15a48"/><rect x="24" y="26" width="1" height="1" fill="#f9836f"/><rect x="25" y="26" width="3" height="1" fill="#f15a48"/><rect x="28" y="26" width="1" height="1" fill="#f9836f"/><rect x="29" y="26" width="3" height="1" fill="#f15a48"/><rect x="32" y="26" width="1" height="1" fill="#f9836f"/><rect x="33" y="26" width="3" height="1" fill="#f15a48"/><rect x="36" y="26" width="1" height="1" fill="#f9836f"/><rect x="37" y="26" width="3" height="1" fill="#f15a48"/><rect x="40" y="26" width="1" height="1" fill="#f9836f"/><rect x="41" y="26" width="3" height="1" fill="#f15a48"/><rect x="44" y="26" width="1" height="1" fill="#f9836f"/><rect x="45" y="26" width="3" height="1" fill="#f15a48"/><rect x="48" y="26" width="1" height="1" fill="#f9836f"/><rect x="49" y="26" width="3" height="1" fill="#f15a48"/><rect x="52" y="26" width="1" height="1" fill="#ffe0d6"/><rect x="53" y="26" width="1" height="1" fill="#f8f1df"/><rect x="54" y="26" width="2" height="1" fill="#0b1326"/><rect x="56" y="26" width="2" height="1" fill="#080c1a" fill-opacity="0.45"/><rect x="58" y="26" width="22" height="1" fill="#16243f"/><rect x="0" y="27" width="20" height="1" fill="#16243f"/><rect x="20" y="27" width="2" height="1" fill="#0b1326"/><rect x="22" y="27" width="1" height="1" fill="#f8f1df"/><rect x="23" y="27" width="1" height="1" fill="#f9836f"/><rect x="24" y="27" width="1" height="1" fill="#f15a48"/><rect x="25" y="27" width="1" height="1" fill="#f9836f"/><rect x="26" y="27" width="1" height="1" fill="#f15a48"/><rect x="27" y="27" width="1" height="1" fill="#f9836f"/><rect x="28" y="27" width="1" height="1" fill="#f15a48"/><rect x="29" y="27" width="1" height="1" fill="#f9836f"/><rect x="30" y="27" width="1" height="1" fill="#f15a48"/><rect x="31" y="27" width="1" height="1" fill="#f9836f"/><rect x="32" y="27" width="1" height="1" fill="#f15a48"/><rect x="33" y="27" width="1" height="1" fill="#f9836f"/><rect x="34" y="27" width="1" height="1" fill="#f15a48"/><rect x="35" y="27" width="1" height="1" fill="#f9836f"/><rect x="36" y="27" width="1" height="1" fill="#f15a48"/><rect x="37" y="27" width="1" height="1" fill="#f9836f"/><rect x="38" y="27" width="1" height="1" fill="#f15a48"/><rect x="39" y="27" width="1" height="1" fill="#f9836f"/><rect x="40" y="27" width="1" height="1" fill="#f15a48"/><rect x="41" y="27" width="1" height="1" fill="#f9836f"/><rect x="42" y="27" width="1" height="1" fill="#f15a48"/><rect x="43" y="27" width="1" height="1" fill="#f9836f"/><rect x="44" y="27" width="1" height="1" fill="#f15a48"/><rect x="45" y="27" width="1" height="1" fill="#f9836f"/><rect x="46" y="27" width="1" height="1" fill="#f15a48"/><rect x="47" y="27" width="1" height="1" fill="#f9836f"/><rect x="48" y="27" width="1" height="1" fill="#f15a48"/><rect x="49" y="27" width="1" height="1" fill="#f9836f"/><rect x="50" y="27" width="1" height="1" fill="#f15a48"/><rect x="51" y="27" width="1" height="1" fill="#f9836f"/><rect x="52" y="27" width="1" height="1" fill="#f15a48"/><rect x="53" y="27" width="1" height="1" fill="#f8f1df"/><rect x="54" y="27" width="3" height="1" fill="#0b1326"/><rect x="57" y="27" width="1" height="1" fill="#080c1a" fill-opacity="0.45"/><rect x="58" y="27" width="22" height="1" fill="#16243f"/><rect x="0" y="28" width="20" height="1" fill="#16243f"/><rect x="20" y="28" width="2" height="1" fill="#0b1326"/><rect x="22" y="28" width="1" height="1" fill="#f8f1df"/><rect x="23" y="28" width="12" height="1" fill="#f15a48"/><rect x="35" y="28" width="4" height="1" fill="#8f2114"/><rect x="39" y="28" width="14" height="1" fill="#f15a48"/><rect x="53" y="28" width="1" height="1" fill="#f8f1df"/><rect x="54" y="28" width="3" height="1" fill="#0b1326"/><rect x="57" y="28" width="1" height="1" fill="#080c1a" fill-opacity="0.45"/><rect x="58" y="28" width="22" height="1" fill="#16243f"/><rect x="0" y="29" width="20" height="1" fill="#16243f"/><rect x="20" y="29" width="2" height="1" fill="#0b1326"/><rect x="22" y="29" width="1" height="1" fill="#f8f1df"/><rect x="23" y="29" width="12" height="1" fill="#f15a48"/><rect x="35" y="29" width="4" height="1" fill="#f8f1df"/><rect x="39" y="29" width="1" height="1" fill="#8f2114"/><rect x="40" y="29" width="13" height="1" fill="#f15a48"/><rect x="53" y="29" width="2" height="1" fill="#f8f1df"/><rect x="55" y="29" width="2" height="1" fill="#0b1326"/><rect x="57" y="29" width="1" height="1" fill="#080c1a" fill-opacity="0.45"/><rect x="58" y="29" width="22" height="1" fill="#16243f"/><rect x="0" y="30" width="20" height="1" fill="#16243f"/><rect x="20" y="30" width="2" height="1" fill="#0b1326"/><rect x="22" y="30" width="1" height="1" fill="#f8f1df"/><rect x="23" y="30" width="12" height="1" fill="#f15a48"/><rect x="35" y="30" width="1" height="1" fill="#f8f1df"/><rect x="36" y="30" width="2" height="1" fill="#0b1326"/><rect x="38" y="30" width="2" height="1" fill="#f8f1df"/><rect x="40" y="30" width="1" height="1" fill="#8f2114"/><rect x="41" y="30" width="12" height="1" fill="#f15a48"/><rect x="53" y="30" width="1" height="1" fill="#ffe0d6"/><rect x="54" y="30" width="1" height="1" fill="#f8f1df"/><rect x="55" y="30" width="2" height="1" fill="#0b1326"/><rect x="57" y="30" width="2" height="1" fill="#080c1a" fill-opacity="0.45"/><rect x="59" y="30" width="21" height="1" fill="#16243f"/><rect x="0" y="31" width="20" height="1" fill="#16243f"/><rect x="20" y="31" width="2" height="1" fill="#0b1326"/><rect x="22" y="31" width="1" height="1" fill="#f8f1df"/><rect x="23" y="31" width="12" height="1" fill="#f15a48"/><rect x="35" y="31" width="1" height="1" fill="#f8f1df"/><rect x="36" y="31" width="3" height="1" fill="#0b1326"/><rect x="39" y="31" width="2" height="1" fill="#f8f1df"/><rect x="41" y="31" width="13" height="1" fill="#f15a48"/><rect x="54" y="31" width="1" height="1" fill="#f8f1df"/><rect x="55" y="31" width="2" height="1" fill="#0b1326"/><rect x="57" y="31" width="2" height="1" fill="#080c1a" fill-opacity="0.45"/><rect x="59" y="31" width="21" height="1" fill="#16243f"/><rect x="0" y="32" width="20" height="1" fill="#16243f"/><rect x="20" y="32" width="2" height="1" fill="#0b1326"/><rect x="22" y="32" width="1" height="1" fill="#f8f1df"/><rect x="23" y="32" width="12" height="1" fill="#f15a48"/><rect x="35" y="32" width="1" height="1" fill="#f8f1df"/><rect x="36" y="32" width="4" height="1" fill="#0b1326"/><rect x="40" y="32" width="1" height="1" fill="#f8f1df"/><rect x="41" y="32" width="13" height="1" fill="#f15a48"/><rect x="54" y="32" width="1" height="1" fill="#f8f1df"/><rect x="55" y="32" width="2" height="1" fill="#0b1326"/><rect x="57" y="32" width="2" height="1" fill="#080c1a" fill-opacity="0.45"/><rect x="59" y="32" width="21" height="1" fill="#16243f"/><rect x="0" y="33" width="20" height="1" fill="#16243f"/><rect x="20" y="33" width="2" height="1" fill="#0b1326"/><rect x="22" y="33" width="1" height="1" fill="#f8f1df"/><rect x="23" y="33" width="12" height="1" fill="#f15a48"/><rect x="35" y="33" width="1" height="1" fill="#f8f1df"/><rect x="36" y="33" width="4" height="1" fill="#0b1326"/><rect x="40" y="33" width="1" height="1" fill="#f8f1df"/><rect x="41" y="33" width="13" height="1" fill="#f15a48"/><rect x="54" y="33" width="1" height="1" fill="#f8f1df"/><rect x="55" y="33" width="2" height="1" fill="#0b1326"/><rect x="57" y="33" width="2" height="1" fill="#080c1a" fill-opacity="0.45"/><rect x="59" y="33" width="21" height="1" fill="#16243f"/><rect x="0" y="34" width="20" height="1" fill="#16243f"/><rect x="20" y="34" width="2" height="1" fill="#0b1326"/><rect x="22" y="34" width="1" height="1" fill="#f8f1df"/><rect x="23" y="34" width="12" height="1" fill="#f15a48"/><rect x="35" y="34" width="1" height="1" fill="#f8f1df"/><rect x="36" y="34" width="4" height="1" fill="#0b1326"/><rect x="40" y="34" width="1" height="1" fill="#f8f1df"/><rect x="41" y="34" width="12" height="1" fill="#f15a48"/><rect x="53" y="34" width="1" height="1" fill="#8f2114"/><rect x="54" y="34" width="1" height="1" fill="#f8f1df"/><rect x="55" y="34" width="2" height="1" fill="#0b1326"/><rect x="57" y="34" width="2" height="1" fill="#080c1a" fill-opacity="0.45"/><rect x="59" y="34" width="21" height="1" fill="#16243f"/><rect x="0" y="35" width="20" height="1" fill="#16243f"/><rect x="20" y="35" width="2" height="1" fill="#0b1326"/><rect x="22" y="35" width="1" height="1" fill="#f8f1df"/><rect x="23" y="35" width="12" height="1" fill="#f15a48"/><rect x="35" y="35" width="1" height="1" fill="#f8f1df"/><rect x="36" y="35" width="3" height="1" fill="#0b1326"/><rect x="39" y="35" width="2" height="1" fill="#f8f1df"/><rect x="41" y="35" width="12" height="1" fill="#f15a48"/><rect x="53" y="35" width="2" height="1" fill="#f8f1df"/><rect x="55" y="35" width="2" height="1" fill="#0b1326"/><rect x="57" y="35" width="2" height="1" fill="#080c1a" fill-opacity="0.45"/><rect x="59" y="35" width="21" height="1" fill="#16243f"/><rect x="0" y="36" width="20" height="1" fill="#16243f"/><rect x="20" y="36" width="2" height="1" fill="#0b1326"/><rect x="22" y="36" width="1" height="1" fill="#f8f1df"/><rect x="23" y="36" width="12" height="1" fill="#f15a48"/><rect x="35" y="36" width="1" height="1" fill="#f8f1df"/><rect x="36" y="36" width="2" height="1" fill="#0b1326"/><rect x="38" y="36" width="2" height="1" fill="#f8f1df"/><rect x="40" y="36" width="1" height="1" fill="#ffe0d6"/><rect x="41" y="36" width="12" height="1" fill="#f15a48"/><rect x="53" y="36" width="1" height="1" fill="#f8f1df"/><rect x="54" y="36" width="3" height="1" fill="#0b1326"/><rect x="57" y="36" width="2" height="1" fill="#080c1a" fill-opacity="0.45"/><rect x="59" y="36" width="21" height="1" fill="#16243f"/><rect x="0" y="37" width="20" height="1" fill="#16243f"/><rect x="20" y="37" width="2" height="1" fill="#0b1326"/><rect x="22" y="37" width="1" height="1" fill="#f8f1df"/><rect x="23" y="37" width="12" height="1" fill="#f15a48"/><rect x="35" y="37" width="4" height="1" fill="#f8f1df"/><rect x="39" y="37" width="1" height="1" fill="#ffe0d6"/><rect x="40" y="37" width="13" height="1" fill="#f15a48"/><rect x="53" y="37" width="1" height="1" fill="#f8f1df"/><rect x="54" y="37" width="3" height="1" fill="#0b1326"/><rect x="57" y="37" width="2" height="1" fill="#080c1a" fill-opacity="0.45"/><rect x="59" y="37" width="21" height="1" fill="#16243f"/><rect x="0" y="38" width="20" height="1" fill="#16243f"/><rect x="20" y="38" width="2" height="1" fill="#0b1326"/><rect x="22" y="38" width="1" height="1" fill="#f8f1df"/><rect x="23" y="38" width="1" height="1" fill="#df4233"/><rect x="24" y="38" width="1" height="1" fill="#f15a48"/><rect x="25" y="38" width="1" height="1" fill="#df4233"/><rect x="26" y="38" width="1" height="1" fill="#f15a48"/><rect x="27" y="38" width="1" height="1" fill="#df4233"/><rect x="28" y="38" width="1" height="1" fill="#f15a48"/><rect x="29" y="38" width="1" height="1" fill="#df4233"/><rect x="30" y="38" width="1" height="1" fill="#f15a48"/><rect x="31" y="38" width="1" height="1" fill="#df4233"/><rect x="32" y="38" width="1" height="1" fill="#f15a48"/><rect x="33" y="38" width="1" height="1" fill="#df4233"/><rect x="34" y="38" width="1" height="1" fill="#f15a48"/><rect x="35" y="38" width="2" height="1" fill="#f8f1df"/><rect x="37" y="38" width="2" height="1" fill="#ffe0d6"/><rect x="39" y="38" width="1" height="1" fill="#df4233"/><rect x="40" y="38" width="1" height="1" fill="#f15a48"/><rect x="41" y="38" width="1" height="1" fill="#df4233"/><rect x="42" y="38" width="1" height="1" fill="#f15a48"/><rect x="43" y="38" width="1" height="1" fill="#df4233"/><rect x="44" y="38" width="1" height="1" fill="#f15a48"/><rect x="45" y="38" width="1" height="1" fill="#df4233"/><rect x="46" y="38" width="1" height="1" fill="#f15a48"/><rect x="47" y="38" width="1" height="1" fill="#df4233"/><rect x="48" y="38" width="1" height="1" fill="#f15a48"/><rect x="49" y="38" width="1" height="1" fill="#df4233"/><rect x="50" y="38" width="1" height="1" fill="#f15a48"/><rect x="51" y="38" width="1" height="1" fill="#df4233"/><rect x="52" y="38" width="1" height="1" fill="#8f2114"/><rect x="53" y="38" width="1" height="1" fill="#f8f1df"/><rect x="54" y="38" width="2" height="1" fill="#0b1326"/><rect x="56" y="38" width="3" height="1" fill="#080c1a" fill-opacity="0.45"/><rect x="59" y="38" width="21" height="1" fill="#16243f"/><rect x="0" y="39" width="20" height="1" fill="#16243f"/><rect x="20" y="39" width="2" height="1" fill="#0b1326"/><rect x="22" y="39" width="1" height="1" fill="#f8f1df"/><rect x="23" y="39" width="1" height="1" fill="#f15a48"/><rect x="24" y="39" width="1" height="1" fill="#df4233"/><rect x="25" y="39" width="3" height="1" fill="#f15a48"/><rect x="28" y="39" width="1" height="1" fill="#df4233"/><rect x="29" y="39" width="3" height="1" fill="#f15a48"/><rect x="32" y="39" width="1" height="1" fill="#df4233"/><rect x="33" y="39" width="2" height="1" fill="#f15a48"/><rect x="35" y="39" width="2" height="1" fill="#ffe0d6"/><rect x="37" y="39" width="3" height="1" fill="#f15a48"/><rect x="40" y="39" width="1" height="1" fill="#df4233"/><rect x="41" y="39" width="3" height="1" fill="#f15a48"/><rect x="44" y="39" width="1" height="1" fill="#df4233"/><rect x="45" y="39" width="3" height="1" fill="#f15a48"/><rect x="48" y="39" width="1" height="1" fill="#df4233"/><rect x="49" y="39" width="3" height="1" fill="#f15a48"/><rect x="52" y="39" width="2" height="1" fill="#f8f1df"/><rect x="54" y="39" width="2" height="1" fill="#0b1326"/><rect x="56" y="39" width="3" height="1" fill="#080c1a" fill-opacity="0.45"/><rect x="59" y="39" width="21" height="1" fill="#16243f"/><rect x="0" y="40" width="20" height="1" fill="#16243f"/><rect x="20" y="40" width="2" height="1" fill="#0b1326"/><rect x="22" y="40" width="1" height="1" fill="#f8f1df"/><rect x="23" y="40" width="1" height="1" fill="#df4233"/><rect x="24" y="40" width="1" height="1" fill="#f15a48"/><rect x="25" y="40" width="1" height="1" fill="#df4233"/><rect x="26" y="40" width="1" height="1" fill="#f15a48"/><rect x="27" y="40" width="1" height="1" fill="#df4233"/><rect x="28" y="40" width="1" height="1" fill="#f15a48"/><rect x="29" y="40" width="1" height="1" fill="#df4233"/><rect x="30" y="40" width="1" height="1" fill="#f15a48"/><rect x="31" y="40" width="1" height="1" fill="#df4233"/><rect x="32" y="40" width="1" height="1" fill="#f15a48"/><rect x="33" y="40" width="1" height="1" fill="#df4233"/><rect x="34" y="40" width="1" height="1" fill="#f15a48"/><rect x="35" y="40" width="1" height="1" fill="#df4233"/><rect x="36" y="40" width="1" height="1" fill="#f15a48"/><rect x="37" y="40" width="1" height="1" fill="#df4233"/><rect x="38" y="40" width="1" height="1" fill="#f15a48"/><rect x="39" y="40" width="1" height="1" fill="#df4233"/><rect x="40" y="40" width="1" height="1" fill="#f15a48"/><rect x="41" y="40" width="1" height="1" fill="#df4233"/><rect x="42" y="40" width="1" height="1" fill="#f15a48"/><rect x="43" y="40" width="1" height="1" fill="#df4233"/><rect x="44" y="40" width="1" height="1" fill="#f15a48"/><rect x="45" y="40" width="1" height="1" fill="#df4233"/><rect x="46" y="40" width="1" height="1" fill="#f15a48"/><rect x="47" y="40" width="1" height="1" fill="#df4233"/><rect x="48" y="40" width="1" height="1" fill="#f15a48"/><rect x="49" y="40" width="1" height="1" fill="#df4233"/><rect x="50" y="40" width="1" height="1" fill="#f15a48"/><rect x="51" y="40" width="1" height="1" fill="#8f2114"/><rect x="52" y="40" width="1" height="1" fill="#f8f1df"/><rect x="53" y="40" width="3" height="1" fill="#0b1326"/><rect x="56" y="40" width="3" height="1" fill="#080c1a" fill-opacity="0.45"/><rect x="59" y="40" width="21" height="1" fill="#16243f"/><rect x="0" y="41" width="20" height="1" fill="#16243f"/><rect x="20" y="41" width="2" height="1" fill="#0b1326"/><rect x="22" y="41" width="1" height="1" fill="#f8f1df"/><rect x="23" y="41" width="1" height="1" fill="#f15a48"/><rect x="24" y="41" width="1" height="1" fill="#df4233"/><rect x="25" y="41" width="1" height="1" fill="#f15a48"/><rect x="26" y="41" width="1" height="1" fill="#df4233"/><rect x="27" y="41" width="1" height="1" fill="#f15a48"/><rect x="28" y="41" width="1" height="1" fill="#df4233"/><rect x="29" y="41" width="1" height="1" fill="#f15a48"/><rect x="30" y="41" width="1" height="1" fill="#df4233"/><rect x="31" y="41" width="1" height="1" fill="#f15a48"/><rect x="32" y="41" width="1" height="1" fill="#df4233"/><rect x="33" y="41" width="1" height="1" fill="#f15a48"/><rect x="34" y="41" width="1" height="1" fill="#df4233"/><rect x="35" y="41" width="1" height="1" fill="#f15a48"/><rect x="36" y="41" width="1" height="1" fill="#df4233"/><rect x="37" y="41" width="1" height="1" fill="#f15a48"/><rect x="38" y="41" width="1" height="1" fill="#df4233"/><rect x="39" y="41" width="1" height="1" fill="#f15a48"/><rect x="40" y="41" width="1" height="1" fill="#df4233"/><rect x="41" y="41" width="1" height="1" fill="#f15a48"/><rect x="42" y="41" width="1" height="1" fill="#df4233"/><rect x="43" y="41" width="1" height="1" fill="#f15a48"/><rect x="44" y="41" width="1" height="1" fill="#df4233"/><rect x="45" y="41" width="1" height="1" fill="#f15a48"/><rect x="46" y="41" width="1" height="1" fill="#df4233"/><rect x="47" y="41" width="1" height="1" fill="#f15a48"/><rect x="48" y="41" width="1" height="1" fill="#df4233"/><rect x="49" y="41" width="1" height="1" fill="#f15a48"/><rect x="50" y="41" width="1" height="1" fill="#df4233"/><rect x="51" y="41" width="2" height="1" fill="#f8f1df"/><rect x="53" y="41" width="3" height="1" fill="#0b1326"/><rect x="56" y="41" width="2" height="1" fill="#080c1a" fill-opacity="0.45"/><rect x="58" y="41" width="22" height="1" fill="#16243f"/><rect x="0" y="42" width="20" height="1" fill="#16243f"/><rect x="20" y="42" width="2" height="1" fill="#0b1326"/><rect x="22" y="42" width="1" height="1" fill="#f8f1df"/><rect x="23" y="42" width="27" height="1" fill="#df4233"/><rect x="50" y="42" width="1" height="1" fill="#8f2114"/><rect x="51" y="42" width="1" height="1" fill="#f8f1df"/><rect x="52" y="42" width="3" height="1" fill="#0b1326"/><rect x="55" y="42" width="3" height="1" fill="#080c1a" fill-opacity="0.45"/><rect x="58" y="42" width="22" height="1" fill="#16243f"/><rect x="0" y="43" width="20" height="1" fill="#16243f"/><rect x="20" y="43" width="2" height="1" fill="#0b1326"/><rect x="22" y="43" width="1" height="1" fill="#f8f1df"/><rect x="23" y="43" width="2" height="1" fill="#df4233"/><rect x="25" y="43" width="1" height="1" fill="#f15a48"/><rect x="26" y="43" width="3" height="1" fill="#df4233"/><rect x="29" y="43" width="1" height="1" fill="#f15a48"/><rect x="30" y="43" width="3" height="1" fill="#df4233"/><rect x="33" y="43" width="1" height="1" fill="#f15a48"/><rect x="34" y="43" width="3" height="1" fill="#df4233"/><rect x="37" y="43" width="1" height="1" fill="#f15a48"/><rect x="38" y="43" width="3" height="1" fill="#df4233"/><rect x="41" y="43" width="1" height="1" fill="#f15a48"/><rect x="42" y="43" width="3" height="1" fill="#df4233"/><rect x="45" y="43" width="1" height="1" fill="#f15a48"/><rect x="46" y="43" width="3" height="1" fill="#df4233"/><rect x="49" y="43" width="1" height="1" fill="#8f2114"/><rect x="50" y="43" width="2" height="1" fill="#f8f1df"/><rect x="52" y="43" width="3" height="1" fill="#0b1326"/><rect x="55" y="43" width="3" height="1" fill="#080c1a" fill-opacity="0.45"/><rect x="58" y="43" width="22" height="1" fill="#16243f"/><rect x="0" y="44" width="20" height="1" fill="#16243f"/><rect x="20" y="44" width="2" height="1" fill="#0b1326"/><rect x="22" y="44" width="1" height="1" fill="#f8f1df"/><rect x="23" y="44" width="25" height="1" fill="#df4233"/><rect x="48" y="44" width="1" height="1" fill="#8f2114"/><rect x="49" y="44" width="2" height="1" fill="#f8f1df"/><rect x="51" y="44" width="3" height="1" fill="#0b1326"/><rect x="54" y="44" width="4" height="1" fill="#080c1a" fill-opacity="0.45"/><rect x="58" y="44" width="22" height="1" fill="#16243f"/><rect x="0" y="45" width="20" height="1" fill="#16243f"/><rect x="20" y="45" width="2" height="1" fill="#0b1326"/><rect x="22" y="45" width="1" height="1" fill="#f8f1df"/><rect x="23" y="45" width="24" height="1" fill="#df4233"/><rect x="47" y="45" width="1" height="1" fill="#8f2114"/><rect x="48" y="45" width="2" height="1" fill="#f8f1df"/><rect x="50" y="45" width="4" height="1" fill="#0b1326"/><rect x="54" y="45" width="3" height="1" fill="#080c1a" fill-opacity="0.45"/><rect x="57" y="45" width="23" height="1" fill="#16243f"/><rect x="0" y="46" width="20" height="1" fill="#16243f"/><rect x="20" y="46" width="2" height="1" fill="#0b1326"/><rect x="22" y="46" width="1" height="1" fill="#f8f1df"/><rect x="23" y="46" width="22" height="1" fill="#df4233"/><rect x="45" y="46" width="2" height="1" fill="#8f2114"/><rect x="47" y="46" width="2" height="1" fill="#f8f1df"/><rect x="49" y="46" width="4" height="1" fill="#0b1326"/><rect x="53" y="46" width="4" height="1" fill="#080c1a" fill-opacity="0.45"/><rect x="57" y="46" width="23" height="1" fill="#16243f"/><rect x="0" y="47" width="20" height="1" fill="#16243f"/><rect x="20" y="47" width="2" height="1" fill="#0b1326"/><rect x="22" y="47" width="1" height="1" fill="#f8f1df"/><rect x="23" y="47" width="20" height="1" fill="#df4233"/><rect x="43" y="47" width="2" height="1" fill="#8f2114"/><rect x="45" y="47" width="3" height="1" fill="#f8f1df"/><rect x="48" y="47" width="4" height="1" fill="#0b1326"/><rect x="52" y="47" width="4" height="1" fill="#080c1a" fill-opacity="0.45"/><rect x="56" y="47" width="24" height="1" fill="#16243f"/><rect x="0" y="48" width="20" height="1" fill="#16243f"/><rect x="20" y="48" width="2" height="1" fill="#0b1326"/><rect x="22" y="48" width="1" height="1" fill="#f8f1df"/><rect x="23" y="48" width="13" height="1" fill="#df4233"/><rect x="36" y="48" width="7" height="1" fill="#8f2114"/><rect x="43" y="48" width="3" height="1" fill="#f8f1df"/><rect x="46" y="48" width="5" height="1" fill="#0b1326"/><rect x="51" y="48" width="5" height="1" fill="#080c1a" fill-opacity="0.45"/><rect x="56" y="48" width="24" height="1" fill="#16243f"/><rect x="0" y="49" width="20" height="1" fill="#16243f"/><rect x="20" y="49" width="2" height="1" fill="#0b1326"/><rect x="22" y="49" width="1" height="1" fill="#f8f1df"/><rect x="23" y="49" width="12" height="1" fill="#df4233"/><rect x="35" y="49" width="1" height="1" fill="#8f2114"/><rect x="36" y="49" width="8" height="1" fill="#f8f1df"/><rect x="44" y="49" width="6" height="1" fill="#0b1326"/><rect x="50" y="49" width="5" height="1" fill="#080c1a" fill-opacity="0.45"/><rect x="55" y="49" width="25" height="1" fill="#16243f"/><rect x="0" y="50" width="20" height="1" fill="#16243f"/><rect x="20" y="50" width="2" height="1" fill="#0b1326"/><rect x="22" y="50" width="1" height="1" fill="#f8f1df"/><rect x="23" y="50" width="12" height="1" fill="#df4233"/><rect x="35" y="50" width="2" height="1" fill="#f8f1df"/><rect x="37" y="50" width="11" height="1" fill="#0b1326"/><rect x="48" y="50" width="6" height="1" fill="#080c1a" fill-opacity="0.45"/><rect x="54" y="50" width="26" height="1" fill="#16243f"/><rect x="0" y="51" width="20" height="1" fill="#16243f"/><rect x="20" y="51" width="2" height="1" fill="#0b1326"/><rect x="22" y="51" width="1" height="1" fill="#f8f1df"/><rect x="23" y="51" width="12" height="1" fill="#df4233"/><rect x="35" y="51" width="1" height="1" fill="#f8f1df"/><rect x="36" y="51" width="10" height="1" fill="#0b1326"/><rect x="46" y="51" width="7" height="1" fill="#080c1a" fill-opacity="0.45"/><rect x="53" y="51" width="27" height="1" fill="#16243f"/><rect x="0" y="52" width="20" height="1" fill="#16243f"/><rect x="20" y="52" width="2" height="1" fill="#0b1326"/><rect x="22" y="52" width="1" height="1" fill="#f8f1df"/><rect x="23" y="52" width="1" height="1" fill="#c4331f"/><rect x="24" y="52" width="1" height="1" fill="#df4233"/><rect x="25" y="52" width="1" height="1" fill="#c4331f"/><rect x="26" y="52" width="1" height="1" fill="#df4233"/><rect x="27" y="52" width="1" height="1" fill="#c4331f"/><rect x="28" y="52" width="1" height="1" fill="#df4233"/><rect x="29" y="52" width="1" height="1" fill="#c4331f"/><rect x="30" y="52" width="1" height="1" fill="#df4233"/><rect x="31" y="52" width="1" height="1" fill="#c4331f"/><rect x="32" y="52" width="1" height="1" fill="#df4233"/><rect x="33" y="52" width="1" height="1" fill="#c4331f"/><rect x="34" y="52" width="1" height="1" fill="#df4233"/><rect x="35" y="52" width="1" height="1" fill="#f8f1df"/><rect x="36" y="52" width="3" height="1" fill="#0b1326"/><rect x="39" y="52" width="13" height="1" fill="#080c1a" fill-opacity="0.45"/><rect x="52" y="52" width="28" height="1" fill="#16243f"/><rect x="0" y="53" width="20" height="1" fill="#16243f"/><rect x="20" y="53" width="2" height="1" fill="#0b1326"/><rect x="22" y="53" width="1" height="1" fill="#f8f1df"/><rect x="23" y="53" width="3" height="1" fill="#df4233"/><rect x="26" y="53" width="1" height="1" fill="#c4331f"/><rect x="27" y="53" width="3" height="1" fill="#df4233"/><rect x="30" y="53" width="1" height="1" fill="#c4331f"/><rect x="31" y="53" width="3" height="1" fill="#df4233"/><rect x="34" y="53" width="1" height="1" fill="#c4331f"/><rect x="35" y="53" width="1" height="1" fill="#f8f1df"/><rect x="36" y="53" width="2" height="1" fill="#0b1326"/><rect x="38" y="53" width="12" height="1" fill="#080c1a" fill-opacity="0.45"/><rect x="50" y="53" width="30" height="1" fill="#16243f"/><rect x="0" y="54" width="20" height="1" fill="#16243f"/><rect x="20" y="54" width="2" height="1" fill="#0b1326"/><rect x="22" y="54" width="1" height="1" fill="#f8f1df"/><rect x="23" y="54" width="1" height="1" fill="#c4331f"/><rect x="24" y="54" width="1" height="1" fill="#df4233"/><rect x="25" y="54" width="1" height="1" fill="#c4331f"/><rect x="26" y="54" width="1" height="1" fill="#df4233"/><rect x="27" y="54" width="1" height="1" fill="#c4331f"/><rect x="28" y="54" width="1" height="1" fill="#df4233"/><rect x="29" y="54" width="1" height="1" fill="#c4331f"/><rect x="30" y="54" width="1" height="1" fill="#df4233"/><rect x="31" y="54" width="1" height="1" fill="#c4331f"/><rect x="32" y="54" width="1" height="1" fill="#df4233"/><rect x="33" y="54" width="1" height="1" fill="#c4331f"/><rect x="34" y="54" width="1" height="1" fill="#df4233"/><rect x="35" y="54" width="1" height="1" fill="#f8f1df"/><rect x="36" y="54" width="2" height="1" fill="#0b1326"/><rect x="38" y="54" width="10" height="1" fill="#080c1a" fill-opacity="0.45"/><rect x="48" y="54" width="32" height="1" fill="#16243f"/><rect x="0" y="55" width="20" height="1" fill="#16243f"/><rect x="20" y="55" width="2" height="1" fill="#0b1326"/><rect x="22" y="55" width="1" height="1" fill="#f8f1df"/><rect x="23" y="55" width="1" height="1" fill="#df4233"/><rect x="24" y="55" width="1" height="1" fill="#c4331f"/><rect x="25" y="55" width="1" height="1" fill="#df4233"/><rect x="26" y="55" width="1" height="1" fill="#c4331f"/><rect x="27" y="55" width="1" height="1" fill="#df4233"/><rect x="28" y="55" width="1" height="1" fill="#c4331f"/><rect x="29" y="55" width="1" height="1" fill="#df4233"/><rect x="30" y="55" width="1" height="1" fill="#c4331f"/><rect x="31" y="55" width="1" height="1" fill="#df4233"/><rect x="32" y="55" width="1" height="1" fill="#c4331f"/><rect x="33" y="55" width="1" height="1" fill="#df4233"/><rect x="34" y="55" width="1" height="1" fill="#c4331f"/><rect x="35" y="55" width="1" height="1" fill="#f8f1df"/><rect x="36" y="55" width="2" height="1" fill="#0b1326"/><rect x="38" y="55" width="3" height="1" fill="#080c1a" fill-opacity="0.45"/><rect x="41" y="55" width="39" height="1" fill="#16243f"/><rect x="0" y="56" width="20" height="1" fill="#16243f"/><rect x="20" y="56" width="2" height="1" fill="#0b1326"/><rect x="22" y="56" width="1" height="1" fill="#f8f1df"/><rect x="23" y="56" width="12" height="1" fill="#c4331f"/><rect x="35" y="56" width="1" height="1" fill="#f8f1df"/><rect x="36" y="56" width="2" height="1" fill="#0b1326"/><rect x="38" y="56" width="2" height="1" fill="#080c1a" fill-opacity="0.45"/><rect x="40" y="56" width="40" height="1" fill="#16243f"/><rect x="0" y="57" width="20" height="1" fill="#16243f"/><rect x="20" y="57" width="2" height="1" fill="#0b1326"/><rect x="22" y="57" width="1" height="1" fill="#f8f1df"/><rect x="23" y="57" width="1" height="1" fill="#df4233"/><rect x="24" y="57" width="3" height="1" fill="#c4331f"/><rect x="27" y="57" width="1" height="1" fill="#df4233"/><rect x="28" y="57" width="3" height="1" fill="#c4331f"/><rect x="31" y="57" width="1" height="1" fill="#df4233"/><rect x="32" y="57" width="3" height="1" fill="#c4331f"/><rect x="35" y="57" width="1" height="1" fill="#f8f1df"/><rect x="36" y="57" width="2" height="1" fill="#0b1326"/><rect x="38" y="57" width="2" height="1" fill="#080c1a" fill-opacity="0.45"/><rect x="40" y="57" width="40" height="1" fill="#16243f"/><rect x="0" y="58" width="20" height="1" fill="#16243f"/><rect x="20" y="58" width="2" height="1" fill="#0b1326"/><rect x="22" y="58" width="1" height="1" fill="#f8f1df"/><rect x="23" y="58" width="12" height="1" fill="#c4331f"/><rect x="35" y="58" width="1" height="1" fill="#f8f1df"/><rect x="36" y="58" width="2" height="1" fill="#0b1326"/><rect x="38" y="58" width="2" height="1" fill="#080c1a" fill-opacity="0.45"/><rect x="40" y="58" width="40" height="1" fill="#16243f"/><rect x="0" y="59" width="20" height="1" fill="#16243f"/><rect x="20" y="59" width="2" height="1" fill="#0b1326"/><rect x="22" y="59" width="1" height="1" fill="#f8f1df"/><rect x="23" y="59" width="12" height="1" fill="#c4331f"/><rect x="35" y="59" width="1" height="1" fill="#f8f1df"/><rect x="36" y="59" width="2" height="1" fill="#0b1326"/><rect x="38" y="59" width="2" height="1" fill="#080c1a" fill-opacity="0.45"/><rect x="40" y="59" width="40" height="1" fill="#16243f"/><rect x="0" y="60" width="20" height="1" fill="#16243f"/><rect x="20" y="60" width="2" height="1" fill="#0b1326"/><rect x="22" y="60" width="1" height="1" fill="#f8f1df"/><rect x="23" y="60" width="1" height="1" fill="#8f2114"/><rect x="24" y="60" width="10" height="1" fill="#c4331f"/><rect x="34" y="60" width="1" height="1" fill="#8f2114"/><rect x="35" y="60" width="1" height="1" fill="#f8f1df"/><rect x="36" y="60" width="2" height="1" fill="#0b1326"/><rect x="38" y="60" width="2" height="1" fill="#080c1a" fill-opacity="0.45"/><rect x="40" y="60" width="40" height="1" fill="#16243f"/><rect x="0" y="61" width="20" height="1" fill="#16243f"/><rect x="20" y="61" width="2" height="1" fill="#0b1326"/><rect x="22" y="61" width="2" height="1" fill="#f8f1df"/><rect x="24" y="61" width="10" height="1" fill="#8f2114"/><rect x="34" y="61" width="2" height="1" fill="#f8f1df"/><rect x="36" y="61" width="2" height="1" fill="#0b1326"/><rect x="38" y="61" width="2" height="1" fill="#080c1a" fill-opacity="0.45"/><rect x="40" y="61" width="40" height="1" fill="#16243f"/><rect x="0" y="62" width="20" height="1" fill="#16243f"/><rect x="20" y="62" width="3" height="1" fill="#0b1326"/><rect x="23" y="62" width="12" height="1" fill="#f8f1df"/><rect x="35" y="62" width="3" height="1" fill="#0b1326"/><rect x="38" y="62" width="2" height="1" fill="#080c1a" fill-opacity="0.45"/><rect x="40" y="62" width="40" height="1" fill="#16243f"/><rect x="0" y="63" width="20" height="1" fill="#16243f"/><rect x="20" y="63" width="18" height="1" fill="#0b1326"/><rect x="38" y="63" width="2" height="1" fill="#080c1a" fill-opacity="0.45"/><rect x="40" y="63" width="40" height="1" fill="#16243f"/><rect x="0" y="64" width="21" height="1" fill="#16243f"/><rect x="21" y="64" width="16" height="1" fill="#0b1326"/><rect x="37" y="64" width="3" height="1" fill="#080c1a" fill-opacity="0.45"/><rect x="40" y="64" width="40" height="1" fill="#16243f"/><rect x="0" y="65" width="80" height="1" fill="#16243f"/><rect x="0" y="66" width="80" height="1" fill="#16243f"/><rect x="1" y="67" width="78" height="1" fill="#16243f"/><rect x="1" y="68" width="78" height="1" fill="#16243f"/><rect x="2" y="69" width="76" height="1" fill="#16243f"/><rect x="2" y="70" width="76" height="1" fill="#16243f"/><rect x="3" y="71" width="74" height="1" fill="#16243f"/><rect x="3" y="72" width="74" height="1" fill="#16243f"/><rect x="4" y="73" width="72" height="1" fill="#16243f"/><rect x="5" y="74" width="70" height="1" fill="#16243f"/><rect x="6" y="75" width="68" height="1" fill="#16243f"/><rect x="7" y="76" width="66" height="1" fill="#16243f"/><rect x="9" y="77" width="62" height="1" fill="#16243f"/><rect x="11" y="78" width="58" height="1" fill="#16243f"/><rect x="13" y="79" width="54" height="1" fill="#16243f"/></svg>